<?xml version="1.0" encoding="UTF-8"?>
<!-- Created with Inkscape (http://www.inkscape.org/) -->
<svg width="210mm" height="297mm" version="1.1" viewBox="0 0 210 297" xmlns="http://www.w3.org/2000/svg" xmlns:cc="http://creativecommons.org/ns#" xmlns:dc="http://purl.org/dc/elements/1.1/" xmlns:rdf="http://www.w3.org/1999/02/22-rdf-syntax-ns#">
 <metadata>
  <rdf:RDF>
   <cc:Work rdf:about="">
    <dc:format>image/svg+xml</dc:format>
    <dc:type rdf:resource="http://purl.org/dc/dcmitype/StillImage"/>
    <dc:title/>
   </cc:Work>
  </rdf:RDF>
 </metadata>
 <g transform="matrix(.26458 0 0 .26458 66.932 96.496)">
  <path d="m50 94c24.3 0 44-19.7 44-44s-19.7-44-44-44-44 19.7-44 44 19.7 44 44 44zm-20.1-61.1h40.2c1.6 0 2.5 1.8 1.5 3.1l-13 16.4c-0.5 0.6-0.6 1.7-0.6 2.5v15.9c0 0.5-0.5 0.6-1 0.8l-13 5.4c-0.8 0.4-2-0.3-2-1.2v-20.9c0-0.8-0.1-1.9-0.6-2.5l-13-16.4c-1-1.2-0.1-3.1 1.5-3.1z"/>
 </g>
</svg>
